<?xml version="1.0" standalone="no"?><!DOCTYPE svg PUBLIC "-//W3C//DTD SVG 1.1//EN" "http://www.w3.org/Graphics/SVG/1.1/DTD/svg11.dtd"><svg t="1587284038273" class="icon" viewBox="0 0 1024 1024" version="1.1" xmlns="http://www.w3.org/2000/svg" p-id="1163" width="64" height="64" xmlns:xlink="http://www.w3.org/1999/xlink"><defs><style type="text/css"></style></defs><path d="M248.9 424.6C217.2 440-23.5 562.7 274.8 701.4c363.5 137.7 749.7 37.4 749.2 37.6-44 23.4-197.6 87.2-434.6 86.4C236.1 824.3 0 694.6 0 561.3c0-146.7 262.1-266.7 589.2-266 20.3 0 38.1 0.2 48.3 0.7l-4.8 46s-227.5 6.9-383.8 82.6z" fill="#d81e06" p-id="1164"></path><path d="M559.4 819.1l-46.4-4.9C529.2 660 572.6 247 572.6 247l-34.9-4s5.8-42.6 6-44.6c15.5 1.6 86.1 10.1 101.6 11.7 7.7 19.3 26.5 24.6 26.5 24.6l-3.1 23.3-49.7-5.7c-0.1 0.1-39.8 377.9-59.6 566.8z" fill="#d81e06" p-id="1165"></path></svg>